<svg width="123" height="123" viewBox="0 0 123 123" fill="none" xmlns="http://www.w3.org/2000/svg">
<g clip-path="url(#clip0)">
<path d="M85.7149 62.8672V38.0003C85.7149 35.3755 84.4575 32.8763 82.3545 31.3112L71.451 23.191V17.8694H73.0409V6.15144C73.0406 2.75981 70.2808 0 66.8884 0H56.1115C52.7201 0 49.9517 2.75981 49.9517 6.15144V17.8696H51.549V23.1913L40.6455 31.3114C38.5425 32.8766 37.2851 35.3757 37.2851 38.0005V62.8674L40.7094 66.2907C39.0645 68.0228 38.155 70.2837 38.155 72.688V111.282C38.155 114.414 39.373 117.355 41.587 119.568C43.8005 121.782 46.7424 123 49.8654 123H73.1269C76.2583 123 79.1995 121.782 81.413 119.568C83.6277 117.354 84.845 114.413 84.845 111.282V72.6877C84.845 70.2834 83.9355 68.0228 82.2831 66.2905L84.3232 64.2586L85.7149 62.8672ZM78.3933 63.5391C77.0215 65.3089 77.151 67.8633 78.7724 69.4849C79.6264 70.3387 80.1011 71.4856 80.1011 72.6877V111.282C80.1011 113.132 79.3655 114.903 78.061 116.216C76.7482 117.52 74.9774 118.256 73.1269 118.256H49.8654C48.0233 118.256 46.2441 117.52 44.9387 116.216C44.2829 115.559 43.7769 114.785 43.4288 113.946C43.0805 113.108 42.8996 112.207 42.8996 111.282V72.6877C42.8996 71.4856 43.3736 70.3387 44.2199 69.4849C45.1057 68.6073 45.5477 67.4458 45.5477 66.2905C45.5477 65.3108 45.2316 64.3302 44.5916 63.5156H65.5727L78.3933 63.5391ZM75.14 31.8882H59.9553L47.8508 31.8572L56.2936 25.5708V17.8694H66.7073V25.5708L71.4238 29.0833L75.14 31.8882ZM69.0871 6.72848V13.9158H66.7073H56.2936H53.9052V6.72848V6.15144C53.9052 4.94186 54.8935 3.95354 56.1115 3.95354H66.8882C68.1062 3.95354 69.0871 4.94186 69.0871 6.15144V6.72848Z" fill="#399166"/>
<path d="M52.0785 73.1701H52.0398V109.796H55.2025V73.1701H52.097H52.0785Z" fill="#399166"/>
<path d="M70.9612 73.2076V73.1701H67.8552H67.8362H67.7977V109.645V109.757V109.796H70.9612V73.3193V73.2076Z" fill="#399166"/>
<path d="M72.5657 67.3425H50.4266V68.9237H72.5657V67.3425Z" fill="#399166"/>
<rect x="29" y="-6" width="65" height="135" fill="#C4C4C4" fill-opacity="0.22"/>
</g>
<defs>
<clipPath id="clip0">
<rect width="123" height="123" fill="white"/>
</clipPath>
</defs>
</svg>
