<svg width="90" height="96" viewBox="0 0 90 96" fill="none" xmlns="http://www.w3.org/2000/svg">
<g clip-path="url(#clip0)">
<path d="M66.0625 24.4686L64.2758 21.2364H64.4098C65.1252 21.2364 65.7068 20.6152 65.7068 19.8521V14.8189C65.7068 13.7846 64.9206 12.9467 63.9511 12.9467H26.049C25.0794 12.9467 24.2931 13.7846 24.2931 14.8189V19.8382C24.2931 20.6094 24.8803 21.2364 25.6027 21.2364H25.7414L20.3512 30.8985V86.0376C20.3512 87.4796 20.7652 88.8859 21.5378 90.0696L24.0947 93.9872C24.9261 95.2476 26.2775 95.9998 27.7112 95.9998H62.2893C63.7225 95.9998 65.0737 95.2476 65.9065 93.985L68.4622 90.0696C69.2346 88.8859 69.6487 87.4789 69.6487 86.0376V30.8985L66.0625 24.4686ZM61.7354 32.3501H39.58L28.2565 32.3348L32.7389 24.3146L34.3417 21.4215H55.6587L57.2627 24.3169L60.1555 29.493L61.7354 32.3501ZM27.8357 85.7447V37.6727H62.1647V85.7447L60.6786 88.0166H29.3214L27.8357 85.7447Z" fill="#374149"/>
<path d="M32.6317 10.4187C33.1418 10.4187 33.4612 9.83554 33.2093 9.36248C32.8419 8.67323 32.7189 7.81991 32.9629 6.94035C33.2431 5.92898 34.0443 5.11748 35.0077 4.87785C36.907 4.40554 38.5954 5.91135 38.5954 7.85591C38.5954 8.40304 38.4594 8.91866 38.2205 9.36529C37.9684 9.83629 38.2904 10.4187 38.7993 10.4187H42.6706C42.9397 9.61579 43.0859 8.75385 43.0859 7.85591C43.0859 3.0636 39.0389 -0.733275 34.4027 0.120788C31.7213 0.614475 29.4671 2.7546 28.674 5.5311C28.1795 7.26323 28.2742 8.9421 28.7496 10.4187H32.6317Z" fill="#374149"/>
<path d="M33.13 44.55C33.81 43.95 34.55 43.38 35.35 42.84C36.17 42.3 37.05 41.83 37.99 41.43C38.93 41.03 39.95 40.72 41.05 40.5C42.15 40.26 43.34 40.14 44.62 40.14C46.36 40.14 47.94 40.38 49.36 40.86C50.8 41.34 52.03 42.03 53.05 42.93C54.07 43.81 54.86 44.88 55.42 46.14C55.98 47.4 56.26 48.81 56.26 50.37C56.26 51.89 56.04 53.21 55.6 54.33C55.16 55.43 54.61 56.39 53.95 57.21C53.29 58.03 52.56 58.74 51.76 59.34C50.98 59.94 50.24 60.51 49.54 61.05C48.84 61.57 48.23 62.09 47.71 62.61C47.21 63.11 46.91 63.68 46.81 64.32L46.12 68.7H41.05L40.54 63.81C40.42 62.87 40.55 62.05 40.93 61.35C41.33 60.63 41.85 59.98 42.49 59.4C43.15 58.8 43.88 58.23 44.68 57.69C45.48 57.13 46.23 56.53 46.93 55.89C47.63 55.23 48.21 54.5 48.67 53.7C49.15 52.88 49.39 51.91 49.39 50.79C49.39 50.07 49.25 49.43 48.97 48.87C48.71 48.29 48.34 47.8 47.86 47.4C47.38 46.98 46.8 46.66 46.12 46.44C45.46 46.22 44.74 46.11 43.96 46.11C42.82 46.11 41.85 46.24 41.05 46.5C40.27 46.74 39.6 47.02 39.04 47.34C38.5 47.64 38.04 47.92 37.66 48.18C37.28 48.42 36.94 48.54 36.64 48.54C35.92 48.54 35.4 48.24 35.08 47.64L33.13 44.55ZM38.8 79.92C38.8 79.3 38.91 78.71 39.13 78.15C39.37 77.59 39.69 77.11 40.09 76.71C40.49 76.31 40.97 75.99 41.53 75.75C42.09 75.51 42.69 75.39 43.33 75.39C43.97 75.39 44.56 75.51 45.1 75.75C45.66 75.99 46.14 76.31 46.54 76.71C46.96 77.11 47.29 77.59 47.53 78.15C47.77 78.71 47.89 79.3 47.89 79.92C47.89 80.56 47.77 81.16 47.53 81.72C47.29 82.26 46.96 82.73 46.54 83.13C46.14 83.53 45.66 83.84 45.1 84.06C44.56 84.3 43.97 84.42 43.33 84.42C42.69 84.42 42.09 84.3 41.53 84.06C40.97 83.84 40.49 83.53 40.09 83.13C39.69 82.73 39.37 82.26 39.13 81.72C38.91 81.16 38.8 80.56 38.8 79.92Z" fill="black"/>
<g clip-path="url(#clip1)">
<rect x="13" y="-12" width="65" height="135" fill="#C4C4C4" fill-opacity="0.22"/>
</g>
</g>
<defs>
<clipPath id="clip0">
<rect width="90" height="96" fill="white"/>
</clipPath>
<clipPath id="clip1">
<rect x="-16" y="-6" width="123" height="102" fill="white"/>
</clipPath>
</defs>
</svg>
