<svg width="49" height="123" viewBox="0 0 49 123" fill="none" xmlns="http://www.w3.org/2000/svg">
<path d="M48.7149 62.8672V38.0003C48.7149 35.3755 47.4575 32.8763 45.3545 31.3112L34.451 23.191V17.8694H36.0409V6.15144C36.0406 2.75981 33.2808 0 29.8884 0H19.1115C15.7201 0 12.9517 2.75981 12.9517 6.15144V17.8696H14.549V23.1913L3.64548 31.3114C1.54247 32.8766 0.285088 35.3757 0.285088 38.0005V62.8674L3.70939 66.2907C2.0645 68.0228 1.15498 70.2837 1.15498 72.688V111.282C1.15498 114.414 2.37296 117.355 4.58696 119.568C6.80048 121.782 9.7424 123 12.8654 123H36.1269C39.2583 123 42.1995 121.782 44.413 119.568C46.6277 117.354 47.845 114.413 47.845 111.282V72.6877C47.845 70.2834 46.9355 68.0228 45.2831 66.2905L47.3232 64.2586L48.7149 62.8672ZM41.3933 63.5391C40.0215 65.3089 40.151 67.8633 41.7724 69.4849C42.6264 70.3387 43.1011 71.4856 43.1011 72.6877V111.282C43.1011 113.132 42.3655 114.903 41.061 116.216C39.7482 117.52 37.9774 118.256 36.1269 118.256H12.8654C11.0233 118.256 9.24415 117.52 7.93871 116.216C7.28287 115.559 6.77694 114.785 6.42884 113.946C6.0805 113.108 5.89961 112.207 5.89961 111.282V72.6877C5.89961 71.4856 6.37359 70.3387 7.21993 69.4849C8.10568 68.6073 8.54771 67.4458 8.54771 66.2905C8.54771 65.3108 8.23156 64.3302 7.59158 63.5156H28.5727L41.3933 63.5391ZM38.14 31.8882H22.9553L10.8508 31.8572L19.2936 25.5708V17.8694H29.7073V25.5708L34.4238 29.0833L38.14 31.8882ZM32.0871 6.72848V13.9158H29.7073H19.2936H16.9052V6.72848V6.15144C16.9052 4.94186 17.8935 3.95354 19.1115 3.95354H29.8882C31.1062 3.95354 32.0871 4.94186 32.0871 6.15144V6.72848Z" fill="#399166"/>
</svg>
