<svg width="50" height="96" viewBox="0 0 50 96" fill="none" xmlns="http://www.w3.org/2000/svg">
<path d="M46.0625 24.4686L44.2758 21.2364H44.4098C45.1252 21.2364 45.7068 20.6152 45.7068 19.8521V14.8189C45.7068 13.7846 44.9206 12.9467 43.9511 12.9467H6.04902C5.07941 12.9467 4.29314 13.7846 4.29314 14.8189V19.8382C4.29314 20.6094 4.88025 21.2364 5.60271 21.2364H5.74141L0.35125 30.8985V86.0376C0.35125 87.4796 0.765214 88.8859 1.53777 90.0696L4.09469 93.9872C4.92613 95.2476 6.27754 95.9998 7.71121 95.9998H42.2893C43.7225 95.9998 45.0737 95.2476 45.9065 93.985L48.4622 90.0696C49.2346 88.8859 49.6487 87.4789 49.6487 86.0376V30.8985L46.0625 24.4686ZM41.7354 32.3501H19.58L8.25648 32.3348L12.7389 24.3146L14.3417 21.4215H35.6587L37.2627 24.3169L40.1555 29.493L41.7354 32.3501ZM7.83566 85.7447V37.6727H42.1647V85.7447L40.6786 88.0166H9.32137L7.83566 85.7447Z" fill="#A56608"/>
<path d="M12.6317 10.4187C13.1418 10.4187 13.4612 9.83554 13.2093 9.36248C12.8419 8.67323 12.7189 7.81991 12.9629 6.94035C13.2431 5.92898 14.0443 5.11748 15.0077 4.87785C16.907 4.40554 18.5954 5.91135 18.5954 7.85591C18.5954 8.40304 18.4594 8.91866 18.2205 9.36529C17.9684 9.83629 18.2904 10.4187 18.7993 10.4187H22.6706C22.9397 9.61579 23.0859 8.75385 23.0859 7.85591C23.0859 3.0636 19.0389 -0.733275 14.4027 0.120788C11.7213 0.614475 9.4671 2.7546 8.67397 5.5311C8.1795 7.26323 8.27424 8.9421 8.74956 10.4187H12.6317Z" fill="#A56608"/>
</svg>
